<svg xmlns="http://www.w3.org/2000/svg" xmlns:xlink="http://www.w3.org/1999/xlink" width="500" zoomAndPan="magnify" viewBox="0 0 375 374.999991" height="500" preserveAspectRatio="xMidYMid meet" version="1.0"><defs><clipPath id="f6f37d5319"><path d="M 88 42.273438 L 124 42.273438 L 124 66 L 88 66 Z M 88 42.273438 " clip-rule="nonzero"/></clipPath><clipPath id="f71ac78ee4"><path d="M 0 54 L 375 54 L 375 332.523438 L 0 332.523438 Z M 0 54 " clip-rule="nonzero"/></clipPath></defs><rect x="-37.5" width="450" fill="#ffffff" y="-37.499999" height="449.999989" fill-opacity="1"/><rect x="-37.5" width="450" fill="#ffffff" y="-37.499999" height="449.999989" fill-opacity="1"/><rect x="-37.5" width="450" fill="#ffd819" y="-37.499999" height="449.999989" fill-opacity="1"/><path fill="#000000" d="M 314.515625 308.15625 C 327.859375 308.15625 338.710938 297.3125 338.710938 283.980469 C 338.710938 270.644531 327.859375 259.800781 314.515625 259.800781 C 301.171875 259.800781 290.324219 270.644531 290.324219 283.980469 C 290.324219 297.3125 301.171875 308.15625 314.515625 308.15625 Z M 314.515625 271.890625 C 321.1875 271.890625 326.613281 277.3125 326.613281 283.980469 C 326.613281 290.644531 321.1875 296.066406 314.515625 296.066406 C 307.84375 296.066406 302.417969 290.644531 302.417969 283.980469 C 302.417969 277.3125 307.84375 271.890625 314.515625 271.890625 Z M 314.515625 271.890625 " fill-opacity="1" fill-rule="nonzero"/><path fill="#000000" d="M 60.484375 259.800781 C 47.140625 259.800781 36.289062 270.644531 36.289062 283.980469 C 36.289062 297.3125 47.140625 308.15625 60.484375 308.15625 C 73.828125 308.15625 84.675781 297.3125 84.675781 283.980469 C 84.675781 270.644531 73.828125 259.800781 60.484375 259.800781 Z M 60.484375 296.066406 C 53.8125 296.066406 48.386719 290.644531 48.386719 283.980469 C 48.386719 277.3125 53.8125 271.890625 60.484375 271.890625 C 67.15625 271.890625 72.582031 277.3125 72.582031 283.980469 C 72.582031 290.644531 67.15625 296.066406 60.484375 296.066406 Z M 60.484375 296.066406 " fill-opacity="1" fill-rule="nonzero"/><path fill="#000000" d="M 96.773438 72.429688 L 120.96875 72.429688 L 120.96875 84.519531 L 96.773438 84.519531 Z M 96.773438 72.429688 " fill-opacity="1" fill-rule="nonzero"/><g clip-path="url(#f6f37d5319)"><path fill="#000000" d="M 88.476562 53.863281 L 92.972656 42.636719 L 123.214844 54.722656 L 118.71875 65.953125 Z M 88.476562 53.863281 " fill-opacity="1" fill-rule="nonzero"/></g><path fill="#000000" d="M 88.476562 103.078125 L 118.714844 90.988281 L 123.210938 102.214844 L 92.972656 114.308594 Z M 88.476562 103.078125 " fill-opacity="1" fill-rule="nonzero"/><g clip-path="url(#f71ac78ee4)"><path fill="#000000" d="M 375 169.136719 L 375 165.757812 C 375 157.945312 370.015625 151.03125 362.59375 148.558594 L 288.175781 123.769531 C 286.183594 117.371094 282.792969 111.46875 278.226562 106.375 L 278.226562 90.5625 C 278.226562 83.894531 272.800781 78.472656 266.128906 78.472656 L 169.355469 78.472656 C 169.355469 65.140625 158.503906 54.296875 145.160156 54.296875 C 138.488281 54.296875 133.066406 59.71875 133.066406 66.386719 L 133.066406 90.5625 C 133.066406 97.230469 138.488281 102.652344 145.160156 102.652344 L 145.160156 104.839844 C 120.199219 116.148438 97.652344 132.699219 79.367188 153.089844 C 77.429688 151.773438 75.097656 151 72.582031 151 L 60.484375 151 C 53.8125 151 48.386719 156.421875 48.386719 163.085938 L 48.386719 187.265625 C 48.386719 193.929688 53.8125 199.351562 60.484375 199.351562 L 60.484375 211.441406 L 12.097656 211.441406 C 5.425781 211.441406 0 216.863281 0 223.53125 L 0 235.617188 C 0 242.285156 5.425781 247.707031 12.097656 247.707031 L 28.585938 247.707031 C 18.503906 256.578125 12.097656 269.53125 12.097656 283.980469 C 12.097656 310.640625 33.804688 332.332031 60.484375 332.332031 C 87.164062 332.332031 108.871094 310.640625 108.871094 283.980469 L 266.128906 283.980469 C 266.128906 310.640625 287.835938 332.332031 314.515625 332.332031 C 341.195312 332.332031 362.902344 310.640625 362.902344 283.980469 C 362.902344 269.53125 356.496094 256.578125 346.414062 247.714844 L 362.902344 247.714844 C 369.574219 247.714844 375 242.292969 375 235.625 L 375 223.535156 C 375 216.871094 369.574219 211.449219 362.902344 211.449219 L 362.902344 186.160156 C 369.925781 183.648438 375 177.007812 375 169.136719 Z M 362.902344 165.757812 L 362.902344 169.136719 C 362.902344 172.195312 360.621094 174.730469 357.671875 175.128906 L 344.757812 170.824219 L 344.757812 155.363281 L 358.765625 160.03125 C 361.238281 160.851562 362.902344 163.152344 362.902344 165.757812 Z M 314.515625 160.75 L 314.515625 145.289062 L 332.660156 151.332031 L 332.660156 166.792969 Z M 302.417969 141.257812 L 302.417969 156.71875 L 290.324219 152.6875 L 290.324219 137.871094 C 290.324219 137.648438 290.292969 137.429688 290.292969 137.210938 Z M 145.160156 66.386719 C 151.832031 66.386719 157.257812 71.808594 157.257812 78.472656 C 157.257812 85.140625 151.832031 90.5625 145.160156 90.5625 Z M 165.992188 90.5625 L 266.128906 90.5625 L 266.128906 102.652344 L 157.257812 102.652344 L 157.257812 99.285156 C 160.882812 97.175781 163.875 94.183594 165.992188 90.5625 Z M 152.539062 114.738281 L 269.511719 114.738281 C 275.121094 121.160156 278.226562 129.269531 278.226562 137.878906 L 278.226562 217.957031 C 273.925781 220.019531 269.878906 222.539062 266.128906 225.464844 L 266.128906 151 C 266.128906 144.332031 260.703125 138.910156 254.03125 138.910156 L 241.933594 138.910156 C 235.265625 138.910156 229.839844 144.332031 229.839844 151 L 229.839844 180.476562 L 219.066406 223.53125 L 170.78125 223.53125 C 163.867188 223.53125 157.652344 227.367188 154.554688 233.550781 L 147.980469 246.691406 L 121.679688 202.894531 L 133.011719 193.839844 L 140.445312 203.125 L 149.890625 195.574219 L 125.699219 165.355469 L 116.25 172.902344 L 125.457031 184.398438 L 114.972656 192.777344 C 111.597656 189.324219 106.941406 187.257812 102.023438 187.257812 L 84.675781 187.257812 L 84.675781 165.3125 C 103.015625 143.570312 126.433594 126.113281 152.539062 114.738281 Z M 254.03125 175.183594 L 241.933594 175.183594 L 241.933594 151.003906 L 254.03125 151.003906 Z M 220.050781 235.625 L 226.101562 247.714844 L 160.996094 247.714844 L 165.375 238.96875 C 166.402344 236.90625 168.476562 235.625 170.78125 235.625 Z M 242.671875 259.800781 L 237.835938 271.890625 L 137.160156 271.890625 L 132.320312 259.800781 Z M 247.839844 247.714844 L 239.625 247.714844 L 230.203125 228.875 L 240.609375 187.269531 L 254.03125 187.269531 L 254.03125 237.824219 C 251.710938 240.902344 249.628906 244.195312 247.839844 247.714844 Z M 60.484375 163.09375 L 72.582031 163.09375 L 72.585938 187.269531 L 60.484375 187.269531 Z M 102.023438 199.359375 C 104.136719 199.359375 106.125 200.484375 107.207031 202.296875 L 134.480469 247.714844 L 127.15625 247.714844 C 116.558594 226.878906 95.988281 213.230469 72.582031 211.621094 L 72.582031 199.359375 Z M 60.484375 320.242188 C 40.46875 320.242188 24.195312 303.980469 24.195312 283.980469 C 24.195312 263.976562 40.46875 247.714844 60.484375 247.714844 C 80.496094 247.714844 96.773438 263.976562 96.773438 283.980469 C 96.773438 303.980469 80.496094 320.242188 60.484375 320.242188 Z M 107.28125 271.890625 C 101.886719 251.066406 82.984375 235.625 60.484375 235.625 L 12.097656 235.625 L 12.097656 223.535156 L 67.917969 223.535156 C 90.300781 223.535156 110.140625 236.960938 118.457031 257.734375 L 124.125 271.890625 Z M 350.804688 283.980469 C 350.804688 303.980469 334.53125 320.242188 314.515625 320.242188 C 294.503906 320.242188 278.226562 303.980469 278.226562 283.980469 C 278.226562 263.976562 294.503906 247.714844 314.515625 247.714844 C 334.53125 247.714844 350.804688 263.976562 350.804688 283.980469 Z M 362.902344 235.625 L 314.515625 235.625 C 292.023438 235.625 273.113281 251.066406 267.71875 271.890625 L 250.867188 271.890625 L 256.53125 257.734375 C 264.847656 236.960938 284.691406 223.535156 307.078125 223.535156 L 362.902344 223.535156 Z M 307.082031 211.449219 C 301.320312 211.449219 295.710938 212.214844 290.324219 213.597656 L 290.324219 165.433594 L 350.804688 185.578125 L 350.804688 211.441406 L 307.082031 211.441406 Z M 307.082031 211.449219 " fill-opacity="1" fill-rule="nonzero"/></g></svg>